# xmcd CD database file generated by Grip 2.96
# 
# Track frame offsets:
#       150
#       15452
#       29747
#       40387
#       47345
#       60417
#       81257
#       105827
#       122739
#       137329
#       155529
#       168249
#       181479
#       200451
#       215633
#       236255
#       248020
#       267058
#       290543
#       306975
# 
# Disc length: 4381 seconds
# 
# Revision: 0
# Processed by: cddbd v1.4PL0 Copyright (c) Steve Scherf et al.
# Submitted via: Grip 2.96
# 
DISCID=0a111b14
DTITLE=Various Artist - cary's gift
DYEAR=1900
DGENRE=
TTITLE0=velvet underground-jesus
TTITLE1=slapp happy-heading for kyoto
TTITLE2=negativland-
TTITLE3=mothers of invention-take your clothes off when you dance
TTITLE4=henry cow-
TTITLE5=tom waits-black wings
TTITLE6=joni mitchell-woodstock
TTITLE7=meditations on mingus-
TTITLE8=beck-cancelled check
TTITLE9=residents-king kong
TTITLE10=john coltrane-
TTITLE11=john cale-
TTITLE12=robert wyatt-
TTITLE13=hampton grease band-hey old lady--bert's song
TTITLE14=ween-roses are free
TTITLE15=paragons-the tide is high
TTITLE16=amy denio with ?????
TTITLE17=patti smith-citizen ship
TTITLE18=frank zappa-peaches en regalia
TTITLE19=drivin n cryin-underground umbrella
EXTD=
EXTT0=
EXTT1=
EXTT2=
EXTT3=
EXTT4=
EXTT5=
EXTT6=
EXTT7=
EXTT8=
EXTT9=
EXTT10=
EXTT11=
EXTT12=
EXTT13=
EXTT14=
EXTT15=
EXTT16=
EXTT17=
EXTT18=
EXTT19=
PLAYORDER=
